<svg data-v-423bf9ae="" xmlns="http://www.w3.org/2000/svg" viewBox="0 0 409 91" class="iconLeftSlogan"><!----><!----><!----><g data-v-423bf9ae="" id="e380489d-b1fb-4e42-ad50-9bb2719b217d" fill="#294F58" transform="matrix(5.928854465484619,0,0,5.928854465484619,114.2041015625,-30.296449661254883)"><path d="M2.18 15.22C2.65 15.22 3.00 14.98 3.14 14.84C2.93 14.29 2.90 13.68 2.90 13.13L2.90 5.96C2.90 5.43 2.48 5.11 1.93 5.11C1.47 5.11 1.13 5.33 0.98 5.47C1.19 6.02 1.23 6.64 1.23 7.18L1.23 14.35C1.23 14.88 1.64 15.22 2.18 15.22ZM11.23 13.13L11.23 10.49C11.23 8.60 10.51 7.64 8.97 7.64C7.80 7.64 7 8.25 6.62 9.32C6.62 8.19 6.12 7.64 5.31 7.64C4.65 7.64 4.27 8.01 4.27 8.51C4.27 8.71 4.33 8.88 4.44 9.06C4.54 8.90 4.70 8.88 4.82 8.88C5.05 8.88 5.17 9.07 5.18 9.60L5.18 14.27C5.18 14.85 5.59 15.22 6.15 15.22C6.59 15.22 6.93 14.99 7.08 14.85C6.80 14.18 6.80 13.68 6.80 11.70C6.80 9.48 7.56 8.48 8.44 8.48C9.35 8.48 9.59 9.30 9.60 10.72L9.60 14.35C9.60 14.88 10.01 15.22 10.54 15.22C10.95 15.22 11.26 15.05 11.49 14.84C11.27 14.29 11.24 13.58 11.23 13.13ZM17.79 7.69C17.40 7.69 17.18 7.76 16.95 7.85C17.02 7.95 17.05 8.08 17.05 8.27C17.05 8.47 17.01 8.65 16.98 8.85L15.53 14.20L13.87 8.33C13.78 7.90 13.41 7.69 12.91 7.69C12.40 7.69 12.12 7.88 11.97 8.06C12.18 8.27 12.31 8.67 12.38 8.88L14.36 14.66C14.50 15.08 14.85 15.22 15.25 15.22C15.61 15.22 15.97 15.13 16.35 14.97L18.52 9.25C18.65 8.95 18.69 8.61 18.69 8.39C18.70 7.90 18.42 7.69 17.79 7.69ZM25.38 13.06C25.07 13.72 24.36 14.17 23.34 14.17C22.15 14.17 21.34 13.57 21.21 11.79C21.70 11.84 22.16 11.86 22.62 11.86C24.47 11.86 25.69 11.12 25.69 9.73C25.69 8.34 24.49 7.64 22.92 7.64C20.65 7.64 19.43 9.09 19.43 11.42C19.43 13.86 20.78 15.22 22.89 15.22C24.16 15.22 25.14 14.73 25.49 13.83C25.70 13.34 25.56 13.15 25.38 13.06ZM22.86 8.23C23.39 8.23 23.93 8.48 23.93 9.46C23.93 11.03 22.74 11.24 21.74 11.23C21.55 11.23 21.35 11.21 21.18 11.20C21.18 9.32 21.81 8.23 22.86 8.23ZM28.34 15.02L30.32 15.02C33.00 15.02 34.57 13.54 34.57 10.04C34.57 6.76 33.00 5.14 30.24 5.14C29.33 5.14 27.94 5.15 27.17 5.25C27.38 5.80 27.36 6.64 27.36 7.18L27.37 14.17C27.37 14.70 27.73 15.02 28.34 15.02ZM29.02 14.41L29.01 5.75L30.24 5.75C31.92 5.75 32.73 7.08 32.73 10.15C32.73 13.26 31.92 14.41 30.24 14.41ZM41.73 13.06C41.43 13.72 40.71 14.17 39.69 14.17C38.50 14.17 37.69 13.57 37.56 11.79C38.05 11.84 38.51 11.86 38.98 11.86C40.82 11.86 42.04 11.12 42.04 9.73C42.04 8.34 40.84 7.64 39.27 7.64C37.00 7.64 35.78 9.09 35.78 11.42C35.78 13.86 37.13 15.22 39.24 15.22C40.52 15.22 41.50 14.73 41.85 13.83C42.06 13.34 41.92 13.15 41.73 13.06ZM39.21 8.23C39.75 8.23 40.28 8.48 40.28 9.46C40.28 11.03 39.09 11.24 38.09 11.23C37.90 11.23 37.70 11.21 37.53 11.20C37.53 9.32 38.16 8.23 39.21 8.23ZM49.08 13.38C49.06 13.57 48.86 13.76 48.69 13.76C48.50 13.76 48.27 13.59 48.09 13.27L46.93 11.30L48.05 9.77C48.40 9.27 48.78 8.83 49.43 8.64C49.35 7.94 49.04 7.64 48.48 7.64C48.02 7.64 47.78 7.87 47.63 8.15L46.37 10.26L45.78 9.17C45.21 8.08 44.93 7.64 44.11 7.64C43.20 7.64 42.80 8.19 42.80 8.71C42.80 9.10 43.04 9.37 43.33 9.49C43.37 9.28 43.54 9.10 43.76 9.10C43.96 9.10 44.13 9.25 44.32 9.60L45.40 11.44L44.24 13.12C43.88 13.66 43.48 14.06 42.85 14.22C42.92 14.97 43.33 15.22 43.78 15.22C44.20 15.22 44.45 14.99 44.59 14.73L45.96 12.45L46.65 13.69C47.15 14.66 47.52 15.23 48.34 15.23C49.17 15.23 49.63 14.69 49.63 14.17C49.63 13.76 49.36 13.50 49.08 13.38Z"></path></g><!----><g data-v-423bf9ae="" id="09f3db9c-7a0d-44a3-b299-65f7f375b0d2" transform="matrix(1.000144124031067,0,0,1.000144124031067,-296.0499572753906,-511.0867004394531)" stroke="none" fill="#294F58"><path d="M393.547 531.348H344.99c1.532 16.628 6.779 21.129 11.097 24.825 3.57 3.056 8.46 7.24 8.46 15.508 0 9.604-3.589 18.382-9.487 25.079h38.487a3 3 0 0 0 3-3v-59.412a3 3 0 0 0-3-3z"></path><path d="M336.586 524.215h.38c1.825 0 3.305-1.348 3.305-3.009v-6.529c0-1.662-1.48-3.009-3.305-3.009h-20.838c-1.825 0-3.305 1.347-3.305 3.009v6.529c0 1.661 1.48 3.009 3.305 3.009h.38c-.938 41.104-19.961 34.727-19.961 47.466 0 16.567 13.431 30 30 30s30-13.433 30-30c0-12.739-19.022-6.361-19.961-47.466z"></path></g><!----><g data-v-423bf9ae="" id="3081ef54-679d-41a8-a669-30e834bb66b6" fill="#294F58" transform="matrix(0.8740237355232239,0,0,0.8740237355232239,119.5336685180664,58.164546966552734)"><path d="M5.25 2.10C2.44 2.10 0.55 4.21 0.55 6.85C0.55 9.48 2.44 11.59 5.25 11.59C8.06 11.59 9.95 9.48 9.95 6.85C9.95 4.21 8.06 2.10 5.25 2.10ZM5.25 10.57C3.00 10.57 1.60 8.93 1.60 6.85C1.60 4.76 3.00 3.12 5.25 3.12C7.50 3.12 8.90 4.76 8.90 6.85C8.90 8.93 7.50 10.57 5.25 10.57ZM26.43 2.21L23.17 6.61L19.85 2.21L18.63 2.21L18.63 11.48L19.68 11.48L19.68 3.81L23.17 8.22L26.60 3.81L26.60 11.48L27.65 11.48L27.65 2.21ZM43.86 2.21L43.86 10.01L38.14 2.21L36.92 2.21L36.92 11.48L37.97 11.48L37.97 3.65L43.69 11.48L44.91 11.48L44.91 2.21ZM55.23 2.21L54.18 2.21L54.18 11.48L55.23 11.48ZM68.66 2.21L67.34 2.21L63.41 11.48L64.57 11.48L65.70 8.79L70.29 8.79L71.43 11.48L72.59 11.48ZM66.11 7.83L68.00 3.30L69.89 7.83ZM94.91 2.21L93.59 2.21L89.66 11.48L90.82 11.48L91.95 8.79L96.54 8.79L97.68 11.48L98.84 11.48ZM92.36 7.83L94.25 3.30L96.14 7.83ZM110.92 2.21L107.02 2.21L107.02 11.48L110.92 11.48C113.13 11.48 115.18 9.74 115.18 6.85C115.18 3.95 113.13 2.21 110.92 2.21ZM110.88 10.49L108.07 10.49L108.07 3.21L110.88 3.21C112.85 3.21 114.13 4.86 114.13 6.85C114.13 8.83 112.85 10.49 110.88 10.49ZM131.67 2.21L128.41 6.61L125.09 2.21L123.87 2.21L123.87 11.48L124.92 11.48L124.92 3.81L128.41 8.22L131.84 3.81L131.84 11.48L132.89 11.48L132.89 2.21ZM143.21 2.21L142.16 2.21L142.16 11.48L143.21 11.48ZM159.42 2.21L159.42 10.01L153.69 2.21L152.47 2.21L152.47 11.48L153.52 11.48L153.52 3.65L159.25 11.48L160.47 11.48L160.47 2.21ZM170.79 2.21L169.74 2.21L169.74 11.48L170.79 11.48ZM180.67 4.65C180.67 4.03 181.03 3.08 183.13 3.08C184.83 3.08 185.61 3.82 185.72 4.75L186.80 4.75C186.72 3.36 185.60 2.10 183.13 2.10C180.81 2.10 179.65 3.15 179.65 4.66C179.65 7.84 185.99 6.69 185.99 8.96C185.99 10.05 185.01 10.60 183.44 10.60C181.83 10.60 180.53 10.05 180.46 8.71L179.37 8.71C179.51 10.37 180.63 11.59 183.37 11.59C185.65 11.59 187.04 10.64 187.04 8.92C187.04 5.68 180.67 6.80 180.67 4.65ZM202.24 2.21L194.73 2.21L194.73 3.22L197.96 3.22L197.96 11.48L199.01 11.48L199.01 3.22L202.24 3.22ZM211.62 7.92L214.84 7.92L217.08 11.48L218.33 11.48L215.89 7.74C216.93 7.50 218.13 6.90 218.13 5.11C218.13 3.35 216.92 2.21 215.01 2.21L210.57 2.21L210.57 11.48L211.62 11.48ZM211.62 3.21L214.89 3.21C216.20 3.21 217.08 3.93 217.08 5.11C217.08 6.55 215.82 6.93 214.83 6.93L211.62 6.93ZM231.10 2.21L229.78 2.21L225.85 11.48L227.01 11.48L228.14 8.79L232.74 8.79L233.87 11.48L235.03 11.48ZM228.55 7.83L230.44 3.30L232.33 7.83ZM248.96 2.21L241.44 2.21L241.44 3.22L244.68 3.22L244.68 11.48L245.73 11.48L245.73 3.22L248.96 3.22ZM260.62 2.21L259.31 2.21L255.37 11.48L256.54 11.48L257.67 8.79L262.26 8.79L263.40 11.48L264.56 11.48ZM258.08 7.83L259.97 3.30L261.86 7.83Z"></path></g></svg>