<?xml version="1.0" encoding="UTF-8" standalone="no"?>
<svg
   data-v-423bf9ae=""
   viewBox="0 0 100.01441 90.02597"
   class="iconLeftSlogan"
   version="1.1"
   id="svg13"
   width="100.01441"
   height="90.02597"
   xmlns="http://www.w3.org/2000/svg"
   xmlns:svg="http://www.w3.org/2000/svg">
  <defs
     id="defs17" />
  <!---->
  <!---->
  <!---->
  <!---->
  <g
     data-v-423bf9ae=""
     id="6ce1143a-079d-443e-bb15-8b15a97f28a3"
     transform="matrix(1.0001441,0,0,1.0001441,-296.58973,-511.74173)"
     stroke="none"
     fill="#ffffff">
    <path
       d="M 393.547,531.348 H 344.99 c 1.532,16.628 6.779,21.129 11.097,24.825 3.57,3.056 8.46,7.24 8.46,15.508 0,9.604 -3.589,18.382 -9.487,25.079 h 38.487 a 3,3 0 0 0 3,-3 v -59.412 a 3,3 0 0 0 -3,-3 z"
       id="path5" />
    <path
       d="m 336.586,524.215 h 0.38 c 1.825,0 3.305,-1.348 3.305,-3.009 v -6.529 c 0,-1.662 -1.48,-3.009 -3.305,-3.009 h -20.838 c -1.825,0 -3.305,1.347 -3.305,3.009 v 6.529 c 0,1.661 1.48,3.009 3.305,3.009 h 0.38 c -0.938,41.104 -19.961,34.727 -19.961,47.466 0,16.567 13.431,30 30,30 16.569,0 30,-13.433 30,-30 0,-12.739 -19.022,-6.361 -19.961,-47.466 z"
       id="path7" />
  </g>
  <!---->
</svg>
