<svg data-v-fde0c5aa="" xmlns="http://www.w3.org/2000/svg" viewBox="0 0 300 300" class="font"><!----><defs data-v-fde0c5aa=""><!----></defs><rect data-v-fde0c5aa="" fill="#48B68D" x="0" y="0" width="300px" height="300px" class="logo-background-square"></rect><defs data-v-fde0c5aa=""><!----></defs><g data-v-fde0c5aa="" id="7a3be0f6-79be-48a8-a3e1-d86e9e298cdd" fill="#294F58" transform="matrix(4.522096633911133,0,0,4.522096633911133,35.56834537648513,104.01028074602773)"><path d="M2.18 15.22C2.65 15.22 3.00 14.98 3.14 14.84C2.93 14.29 2.90 13.68 2.90 13.13L2.90 5.96C2.90 5.43 2.48 5.11 1.93 5.11C1.47 5.11 1.13 5.33 0.98 5.47C1.19 6.02 1.23 6.64 1.23 7.18L1.23 14.35C1.23 14.88 1.64 15.22 2.18 15.22ZM11.23 13.13L11.23 10.49C11.23 8.60 10.51 7.64 8.97 7.64C7.80 7.64 7 8.25 6.62 9.32C6.62 8.19 6.12 7.64 5.31 7.64C4.65 7.64 4.27 8.01 4.27 8.51C4.27 8.71 4.33 8.88 4.44 9.06C4.54 8.90 4.70 8.88 4.82 8.88C5.05 8.88 5.17 9.07 5.18 9.60L5.18 14.27C5.18 14.85 5.59 15.22 6.15 15.22C6.59 15.22 6.93 14.99 7.08 14.85C6.80 14.18 6.80 13.68 6.80 11.70C6.80 9.48 7.56 8.48 8.44 8.48C9.35 8.48 9.59 9.30 9.60 10.72L9.60 14.35C9.60 14.88 10.01 15.22 10.54 15.22C10.95 15.22 11.26 15.05 11.49 14.84C11.27 14.29 11.24 13.58 11.23 13.13ZM17.79 7.69C17.40 7.69 17.18 7.76 16.95 7.85C17.02 7.95 17.05 8.08 17.05 8.27C17.05 8.47 17.01 8.65 16.98 8.85L15.53 14.20L13.87 8.33C13.78 7.90 13.41 7.69 12.91 7.69C12.40 7.69 12.12 7.88 11.97 8.06C12.18 8.27 12.31 8.67 12.38 8.88L14.36 14.66C14.50 15.08 14.85 15.22 15.25 15.22C15.61 15.22 15.97 15.13 16.35 14.97L18.52 9.25C18.65 8.95 18.69 8.61 18.69 8.39C18.70 7.90 18.42 7.69 17.79 7.69ZM25.38 13.06C25.07 13.72 24.36 14.17 23.34 14.17C22.15 14.17 21.34 13.57 21.21 11.79C21.70 11.84 22.16 11.86 22.62 11.86C24.47 11.86 25.69 11.12 25.69 9.73C25.69 8.34 24.49 7.64 22.92 7.64C20.65 7.64 19.43 9.09 19.43 11.42C19.43 13.86 20.78 15.22 22.89 15.22C24.16 15.22 25.14 14.73 25.49 13.83C25.70 13.34 25.56 13.15 25.38 13.06ZM22.86 8.23C23.39 8.23 23.93 8.48 23.93 9.46C23.93 11.03 22.74 11.24 21.74 11.23C21.55 11.23 21.35 11.21 21.18 11.20C21.18 9.32 21.81 8.23 22.86 8.23ZM28.34 15.02L30.32 15.02C33.00 15.02 34.57 13.54 34.57 10.04C34.57 6.76 33.00 5.14 30.24 5.14C29.33 5.14 27.94 5.15 27.17 5.25C27.38 5.80 27.36 6.64 27.36 7.18L27.37 14.17C27.37 14.70 27.73 15.02 28.34 15.02ZM29.02 14.41L29.01 5.75L30.24 5.75C31.92 5.75 32.73 7.08 32.73 10.15C32.73 13.26 31.92 14.41 30.24 14.41ZM41.73 13.06C41.43 13.72 40.71 14.17 39.69 14.17C38.50 14.17 37.69 13.57 37.56 11.79C38.05 11.84 38.51 11.86 38.98 11.86C40.82 11.86 42.04 11.12 42.04 9.73C42.04 8.34 40.84 7.64 39.27 7.64C37.00 7.64 35.78 9.09 35.78 11.42C35.78 13.86 37.13 15.22 39.24 15.22C40.52 15.22 41.50 14.73 41.85 13.83C42.06 13.34 41.92 13.15 41.73 13.06ZM39.21 8.23C39.75 8.23 40.28 8.48 40.28 9.46C40.28 11.03 39.09 11.24 38.09 11.23C37.90 11.23 37.70 11.21 37.53 11.20C37.53 9.32 38.16 8.23 39.21 8.23ZM49.08 13.38C49.06 13.57 48.86 13.76 48.69 13.76C48.50 13.76 48.27 13.59 48.09 13.27L46.93 11.30L48.05 9.77C48.40 9.27 48.78 8.83 49.43 8.64C49.35 7.94 49.04 7.64 48.48 7.64C48.02 7.64 47.78 7.87 47.63 8.15L46.37 10.26L45.78 9.17C45.21 8.08 44.93 7.64 44.11 7.64C43.20 7.64 42.80 8.19 42.80 8.71C42.80 9.10 43.04 9.37 43.33 9.49C43.37 9.28 43.54 9.10 43.76 9.10C43.96 9.10 44.13 9.25 44.32 9.60L45.40 11.44L44.24 13.12C43.88 13.66 43.48 14.06 42.85 14.22C42.92 14.97 43.33 15.22 43.78 15.22C44.20 15.22 44.45 14.99 44.59 14.73L45.96 12.45L46.65 13.69C47.15 14.66 47.52 15.23 48.34 15.23C49.17 15.23 49.63 14.69 49.63 14.17C49.63 13.76 49.36 13.50 49.08 13.38Z"></path></g><!----><!----></svg>